<svg width="18" height="20" viewBox="0 0 18 20" fill="none" xmlns="http://www.w3.org/2000/svg">
<path fill-rule="evenodd" clip-rule="evenodd" d="M6.00011 8.99997V11H4.00011V8.99997H6.00011ZM9.99994 8.99997V11H7.99995V8.99997H9.99994ZM14.0001 8.99997V11H12.0001V8.99997H14.0001ZM16 2C17.1046 2 18 2.89543 18 4V18C18 19.1046 17.1046 20 16 20H2C0.89 20 0 19.1 0 18V4C0 2.89543 0.89543 2 2 2H3V0H5V2H13V0H15V2H16ZM16.0001 18V6.99999H2.00005V18H16.0001ZM6.00011 13V15H4.00011V13H6.00011ZM9.99994 13V15H7.99995V13H9.99994ZM14.0001 13V15H12.0001V13H14.0001Z" fill="#7F85A2"/>
</svg>
