<svg width="91" height="69" viewBox="0 0 91 69" fill="none" xmlns="http://www.w3.org/2000/svg">
<path d="M31.0781 8.75781V15.2266C27.9219 12.5859 24.6562 11.2656 21.2812 11.2656C17.5625 11.2656 14.4297 12.6016 11.8828 15.2734C9.32031 17.9297 8.03906 21.1797 8.03906 25.0234C8.03906 28.8203 9.32031 32.0234 11.8828 34.6328C14.4453 37.2422 17.5859 38.5469 21.3047 38.5469C23.2266 38.5469 24.8594 38.2344 26.2031 37.6094C26.9531 37.2969 27.7266 36.875 28.5234 36.3438C29.3359 35.8125 30.1875 35.1719 31.0781 34.4219V41.0078C27.9531 42.7734 24.6719 43.6562 21.2344 43.6562C16.0625 43.6562 11.6484 41.8516 7.99219 38.2422C4.35156 34.6016 2.53125 30.2109 2.53125 25.0703C2.53125 20.4609 4.05469 16.3516 7.10156 12.7422C10.8516 8.32031 15.7031 6.10938 21.6562 6.10938C24.9062 6.10938 28.0469 6.99219 31.0781 8.75781ZM37.9922 43V6.8125H43.4297C45.8516 6.8125 47.7812 7 49.2188 7.375C50.6719 7.75 51.8984 8.38281 52.8984 9.27344C53.9141 10.1953 54.7188 11.3437 55.3125 12.7188C55.9219 14.1094 56.2266 15.5156 56.2266 16.9375C56.2266 19.5312 55.2344 21.7266 53.25 23.5234C55.1719 24.1797 56.6875 25.3281 57.7969 26.9688C58.9219 28.5938 59.4844 30.4844 59.4844 32.6406C59.4844 35.4688 58.4844 37.8594 56.4844 39.8125C55.2812 41.0156 53.9297 41.8516 52.4297 42.3203C50.7891 42.7734 48.7344 43 46.2656 43H37.9922ZM43.4531 22.3516H45.1641C47.1953 22.3516 48.6797 21.9062 49.6172 21.0156C50.5703 20.1094 51.0469 18.7812 51.0469 17.0312C51.0469 15.3281 50.5625 14.0391 49.5938 13.1641C48.625 12.2734 47.2188 11.8281 45.375 11.8281H43.4531V22.3516ZM43.4531 37.8672H46.8281C49.2969 37.8672 51.1094 37.3828 52.2656 36.4141C53.4844 35.3672 54.0938 34.0391 54.0938 32.4297C54.0938 30.8672 53.5078 29.5547 52.3359 28.4922C51.1953 27.4453 49.1562 26.9219 46.2188 26.9219H43.4531V37.8672ZM86.8594 12.2031L82.4297 14.8281C81.6016 13.3906 80.8125 12.4531 80.0625 12.0156C79.2812 11.5156 78.2734 11.2656 77.0391 11.2656C75.5234 11.2656 74.2656 11.6953 73.2656 12.5547C72.2656 13.3984 71.7656 14.4609 71.7656 15.7422C71.7656 17.5078 73.0781 18.9297 75.7031 20.0078L79.3125 21.4844C82.25 22.6719 84.3984 24.125 85.7578 25.8438C87.1172 27.5469 87.7969 29.6406 87.7969 32.125C87.7969 35.4531 86.6875 38.2031 84.4688 40.375C82.2344 42.5625 79.4609 43.6562 76.1484 43.6562C73.0078 43.6562 70.4141 42.7266 68.3672 40.8672C66.3516 39.0078 65.0938 36.3906 64.5938 33.0156L70.125 31.7969C70.375 33.9219 70.8125 35.3906 71.4375 36.2031C72.5625 37.7656 74.2031 38.5469 76.3594 38.5469C78.0625 38.5469 79.4766 37.9766 80.6016 36.8359C81.7266 35.6953 82.2891 34.25 82.2891 32.5C82.2891 31.7969 82.1875 31.1562 81.9844 30.5781C81.7969 29.9844 81.4922 29.4453 81.0703 28.9609C80.6641 28.4609 80.1328 28 79.4766 27.5781C78.8203 27.1406 78.0391 26.7266 77.1328 26.3359L73.6406 24.8828C68.6875 22.7891 66.2109 19.7266 66.2109 15.6953C66.2109 12.9766 67.25 10.7031 69.3281 8.875C71.4062 7.03125 73.9922 6.10938 77.0859 6.10938C81.2578 6.10938 84.5156 8.14063 86.8594 12.2031Z" fill="#1E1F20" fill-opacity="0.8"/>
<path d="M15.4189 50.524L14.6709 51.14C13.8496 49.8347 12.7276 49.182 11.3049 49.182C10.4249 49.182 9.68427 49.49 9.08294 50.106C8.4816 50.722 8.18094 51.47 8.18094 52.35C8.18094 52.7607 8.2616 53.1273 8.42294 53.45C8.58427 53.7727 8.84827 54.0733 9.21494 54.352C9.5816 54.616 9.87494 54.8067 10.0949 54.924C10.3149 55.0413 10.6743 55.2173 11.1729 55.452L14.3409 57.102C15.6023 57.894 16.2329 58.994 16.2329 60.402C16.2329 61.7513 15.7123 62.8953 14.6709 63.834C13.6296 64.758 12.4196 65.22 11.0409 65.22C9.9116 65.22 8.91427 64.8973 8.04894 64.252C7.1836 63.6067 6.55294 62.7413 6.15694 61.656L7.08094 61.238C7.87294 63.2327 9.2076 64.23 11.0849 64.23C12.1849 64.23 13.1383 63.8487 13.9449 63.086C14.7663 62.3233 15.1769 61.3993 15.1769 60.314C15.1769 59.9767 15.1036 59.6613 14.9569 59.368C14.8249 59.06 14.6783 58.818 14.5169 58.642C14.3703 58.4513 14.1209 58.2387 13.7689 58.004C13.4169 57.7693 13.1603 57.6153 12.9989 57.542C12.8523 57.454 12.5663 57.3073 12.1409 57.102C11.9943 57.0287 11.8916 56.9773 11.8329 56.948L8.84094 55.364C7.69694 54.66 7.12494 53.67 7.12494 52.394C7.12494 51.162 7.52094 50.1573 8.31294 49.38C9.10494 48.588 10.1243 48.192 11.3709 48.192C12.2069 48.192 12.9916 48.4047 13.7249 48.83C14.4583 49.2407 15.0229 49.8053 15.4189 50.524ZM23.1617 54.616C24.6577 54.616 25.9191 55.1293 26.9457 56.156C27.9871 57.168 28.5077 58.422 28.5077 59.918C28.5077 61.414 27.9871 62.6753 26.9457 63.702C25.9191 64.714 24.6577 65.22 23.1617 65.22C21.7097 65.22 20.4631 64.7067 19.4217 63.68C18.3951 62.6387 17.8817 61.392 17.8817 59.94C17.8817 58.4733 18.3951 57.2193 19.4217 56.178C20.4484 55.1367 21.6951 54.616 23.1617 54.616ZM23.0957 55.54C21.9077 55.54 20.9031 55.9727 20.0817 56.838C19.2751 57.7033 18.8717 58.7373 18.8717 59.94C18.8717 61.1133 19.2751 62.1327 20.0817 62.998C20.9031 63.8633 21.9077 64.296 23.0957 64.296C24.3424 64.296 25.3911 63.878 26.2417 63.042C27.0924 62.206 27.5177 61.172 27.5177 59.94C27.5177 58.6933 27.0924 57.652 26.2417 56.816C25.4057 55.9653 24.3571 55.54 23.0957 55.54ZM31.893 46.85V65H30.903V46.85H31.893ZM41.4458 54.836H42.4358V60.93C42.4358 61.414 42.4285 61.7733 42.4138 62.008C42.4138 62.228 42.3625 62.5287 42.2598 62.91C42.1571 63.2767 42.0105 63.592 41.8198 63.856C41.1305 64.7653 40.1185 65.22 38.7838 65.22C37.4491 65.22 36.4371 64.7653 35.7478 63.856C35.5571 63.592 35.4105 63.2767 35.3078 62.91C35.2051 62.5287 35.1465 62.228 35.1318 62.008C35.1318 61.7733 35.1318 61.414 35.1318 60.93V54.836H36.1218V60.578C36.1218 61.15 36.1438 61.6267 36.1878 62.008C36.2465 62.3893 36.3565 62.7707 36.5178 63.152C36.6938 63.5333 36.9651 63.8193 37.3318 64.01C37.7131 64.2007 38.1971 64.296 38.7838 64.296C39.3705 64.296 39.8471 64.2007 40.2138 64.01C40.5951 63.8193 40.8665 63.5333 41.0278 63.152C41.2038 62.7707 41.3138 62.3893 41.3578 62.008C41.4165 61.6267 41.4458 61.15 41.4458 60.578V54.836ZM46.7628 55.76V65H45.7728V55.76H44.6508V54.836H45.7728V51.206H46.7628V54.836H48.5448V55.76H46.7628ZM51.6244 54.836V65H50.6344V54.836H51.6244ZM50.5024 50.81C50.6784 50.634 50.8911 50.546 51.1404 50.546C51.3897 50.546 51.6024 50.634 51.7784 50.81C51.9544 50.986 52.0424 51.1987 52.0424 51.448C52.0424 51.6973 51.9544 51.91 51.7784 52.086C51.6024 52.262 51.3897 52.35 51.1404 52.35C50.8911 52.35 50.6784 52.262 50.5024 52.086C50.3264 51.91 50.2384 51.6973 50.2384 51.448C50.2384 51.1987 50.3264 50.986 50.5024 50.81ZM59.7067 54.616C61.2027 54.616 62.464 55.1293 63.4907 56.156C64.532 57.168 65.0527 58.422 65.0527 59.918C65.0527 61.414 64.532 62.6753 63.4907 63.702C62.464 64.714 61.2027 65.22 59.7067 65.22C58.2547 65.22 57.008 64.7067 55.9667 63.68C54.94 62.6387 54.4267 61.392 54.4267 59.94C54.4267 58.4733 54.94 57.2193 55.9667 56.178C56.9933 55.1367 58.24 54.616 59.7067 54.616ZM59.6407 55.54C58.4527 55.54 57.448 55.9727 56.6267 56.838C55.82 57.7033 55.4167 58.7373 55.4167 59.94C55.4167 61.1133 55.82 62.1327 56.6267 62.998C57.448 63.8633 58.4527 64.296 59.6407 64.296C60.8873 64.296 61.936 63.878 62.7867 63.042C63.6373 62.206 64.0627 61.172 64.0627 59.94C64.0627 58.6933 63.6373 57.652 62.7867 56.816C61.9507 55.9653 60.902 55.54 59.6407 55.54ZM68.4379 54.836V56.42H68.4819C68.7752 55.848 69.1859 55.408 69.7139 55.1C70.2419 54.7773 70.8359 54.616 71.4959 54.616C72.7426 54.616 73.6079 54.9753 74.0919 55.694C74.5906 56.398 74.8399 57.454 74.8399 58.862V65H73.8499V58.862C73.8499 58.334 73.8206 57.9013 73.7619 57.564C73.7179 57.212 73.6152 56.8673 73.4539 56.53C73.3072 56.1927 73.0579 55.9433 72.7059 55.782C72.3686 55.6207 71.9359 55.54 71.4079 55.54C69.4279 55.54 68.4379 57.0213 68.4379 59.984V65H67.4479V54.836H68.4379ZM83.3591 56.244L82.5011 56.684C82.1491 55.9213 81.5551 55.54 80.7191 55.54C80.2791 55.54 79.8757 55.7013 79.5091 56.024C79.1571 56.332 78.9811 56.6987 78.9811 57.124C78.9811 57.564 79.1497 57.9233 79.4871 58.202C79.8244 58.4807 80.2351 58.708 80.7191 58.884C81.2031 59.0453 81.6871 59.2287 82.1711 59.434C82.6697 59.6247 83.0877 59.94 83.4251 60.38C83.7624 60.82 83.9311 61.3773 83.9311 62.052C83.9311 62.976 83.6157 63.7387 82.9851 64.34C82.3544 64.9267 81.5771 65.22 80.6531 65.22C79.8024 65.22 79.0544 64.978 78.4091 64.494C77.7784 64.01 77.3604 63.3573 77.1551 62.536L78.1231 62.228C78.5484 63.6067 79.3917 64.296 80.6531 64.296C81.2837 64.296 81.8191 64.076 82.2591 63.636C82.7137 63.196 82.9411 62.6533 82.9411 62.008C82.9411 61.4507 82.7724 61.0327 82.4351 60.754C82.0977 60.4753 81.6064 60.226 80.9611 60.006C80.4917 59.83 80.1324 59.6907 79.8831 59.588C79.6337 59.4707 79.3331 59.302 78.9811 59.082C78.6437 58.8473 78.3944 58.576 78.2331 58.268C78.0717 57.96 77.9911 57.6007 77.9911 57.19C77.9911 56.442 78.2624 55.826 78.8051 55.342C79.3477 54.858 80.0004 54.616 80.7631 54.616C81.2911 54.616 81.7971 54.77 82.2811 55.078C82.7797 55.386 83.1391 55.7747 83.3591 56.244Z" fill="#1E1F20" fill-opacity="0.8"/>
</svg>
