<svg width="32" height="35" viewBox="0 0 32 35" fill="none" xmlns="http://www.w3.org/2000/svg">
<path d="M28.9016 30.2273H2.91645C2.30429 30.2273 1.70764 30.0346 1.21104 29.6767C0.714448 29.3187 0.343083 28.8135 0.149562 28.2328C-0.0439587 27.652 -0.0498224 27.025 0.132802 26.4407C0.315426 25.8565 0.677277 25.3444 1.16709 24.9773L2.4772 23.9946C2.97025 23.6262 3.30105 23.0808 3.39993 22.4732L5.04366 12.4951C5.44498 9.90051 6.76149 7.53521 8.75512 5.82694C10.7487 4.11866 13.2878 3.18018 15.9133 3.18121C18.5387 3.18225 21.077 4.12274 23.0693 5.8326C25.0616 7.54245 26.3762 9.90878 26.7755 12.5036L28.4181 22.4732C28.517 23.0808 28.8478 23.6262 29.3408 23.9946L30.6513 24.9773C31.1412 25.3445 31.5032 25.8565 31.6858 26.4409C31.8684 27.0253 31.8625 27.6523 31.6689 28.2331C31.4753 28.8139 31.1038 29.3191 30.6071 29.677C30.1103 30.0349 29.5136 30.2274 28.9013 30.2273H28.9016ZM15.9102 4.77271C13.6611 4.76179 11.4834 5.56175 9.77621 7.02599C8.06901 8.49022 6.94666 10.5206 6.61484 12.7451L4.96992 22.7318C4.80489 23.7441 4.25353 24.6529 3.43191 25.267L2.1214 26.25C1.89871 26.4169 1.7342 26.6496 1.65119 26.9153C1.56817 27.1809 1.57085 27.4659 1.65886 27.7299C1.74686 27.9939 1.91572 28.2235 2.14151 28.3862C2.3673 28.5489 2.63856 28.6364 2.91685 28.6363H28.902C29.1802 28.6364 29.4514 28.5488 29.6771 28.3862C29.9028 28.2235 30.0716 27.994 30.1596 27.73C30.2476 27.4661 30.2503 27.1812 30.1673 26.9156C30.0844 26.65 29.92 26.4173 29.6974 26.2504L28.3865 25.267C27.5649 24.6529 27.0135 23.7441 26.8485 22.7318L25.2043 12.7537C24.8741 10.5279 23.7527 8.49581 22.0456 7.02993C20.3385 5.56405 18.1603 4.76266 15.9102 4.77271Z" fill="#BDBDBD"/>
<path d="M18.2954 5.05909C18.0844 5.05909 17.8821 4.97528 17.7329 4.82611C17.5837 4.67693 17.4999 4.4746 17.4999 4.26364V3.18182C17.4999 2.75988 17.3323 2.35523 17.0339 2.05688C16.7356 1.75852 16.3309 1.59091 15.909 1.59091C15.4871 1.59091 15.0824 1.75852 14.784 2.05688C14.4857 2.35523 14.3181 2.75988 14.3181 3.18182V4.26364C14.3181 4.4746 14.2343 4.67693 14.0851 4.82611C13.9359 4.97528 13.7336 5.05909 13.5226 5.05909C13.3117 5.05909 13.1093 4.97528 12.9602 4.82611C12.811 4.67693 12.7272 4.4746 12.7272 4.26364V3.18182C12.7272 2.33795 13.0624 1.52864 13.6591 0.931933C14.2558 0.335226 15.0651 0 15.909 0C16.7529 0 17.5622 0.335226 18.1589 0.931933C18.7556 1.52864 19.0908 2.33795 19.0908 3.18182V4.26364C19.0908 4.4746 19.007 4.67693 18.8578 4.82611C18.7087 4.97528 18.5063 5.05909 18.2954 5.05909Z" fill="#BDBDBD"/>
<path d="M15.909 35.0001C14.4327 34.9984 13.0174 34.4112 11.9735 33.3674C10.9296 32.3235 10.3425 30.9081 10.3408 29.4319C10.3408 29.2209 10.4246 29.0186 10.5738 28.8694C10.723 28.7202 10.9253 28.6364 11.1363 28.6364C11.3472 28.6364 11.5496 28.7202 11.6987 28.8694C11.8479 29.0186 11.9317 29.2209 11.9317 29.4319C11.9317 30.4867 12.3508 31.4983 13.0966 32.2442C13.8425 32.9901 14.8542 33.4091 15.909 33.4091C16.9638 33.4091 17.9755 32.9901 18.7214 32.2442C19.4672 31.4983 19.8863 30.4867 19.8863 29.4319C19.8863 29.2209 19.9701 29.0186 20.1193 28.8694C20.2684 28.7202 20.4708 28.6364 20.6817 28.6364C20.8927 28.6364 21.095 28.7202 21.2442 28.8694C21.3934 29.0186 21.4772 29.2209 21.4772 29.4319C21.4755 30.9081 20.8884 32.3235 19.8445 33.3674C18.8006 34.4112 17.3853 34.9984 15.909 35.0001Z" fill="#BDBDBD"/>
</svg>
