<svg width="25" height="25" viewBox="0 0 25 25" fill="none" xmlns="http://www.w3.org/2000/svg">
<mask id="path-1-inside-1" fill="white">
<path fill-rule="evenodd" clip-rule="evenodd" d="M12.5 0C15.9518 0 18.75 2.79822 18.75 6.25C18.75 9.70178 15.9518 12.5 12.5 12.5C9.04822 12.5 6.25 9.70178 6.25 6.25C6.25 2.79822 9.04822 0 12.5 0ZM12.5 3.125C10.7741 3.125 9.375 4.52411 9.375 6.25C9.375 7.97589 10.7741 9.375 12.5 9.375C14.2259 9.375 15.625 7.97589 15.625 6.25C15.625 4.52411 14.2259 3.125 12.5 3.125ZM12.5 14.0625C16.6719 14.0625 25 16.1406 25 20.3125V25H0V20.3125C0 16.1406 8.32812 14.0625 12.5 14.0625ZM12.4997 17.0313C7.85908 17.0313 2.96846 19.3126 2.96846 20.3126V22.0313H22.031V20.3126C22.031 19.3126 17.1403 17.0313 12.4997 17.0313Z"/>
</mask>
<path d="M25 25V26.6H26.6V25H25ZM0 25H-1.6V26.6H0V25ZM2.96846 22.0313H1.36846V23.6313H2.96846V22.0313ZM22.031 22.0313V23.6313H23.631V22.0313H22.031ZM12.5 1.6C15.0681 1.6 17.15 3.68188 17.15 6.25H20.35C20.35 1.91456 16.8354 -1.6 12.5 -1.6V1.6ZM17.15 6.25C17.15 8.81812 15.0681 10.9 12.5 10.9V14.1C16.8354 14.1 20.35 10.5854 20.35 6.25H17.15ZM12.5 10.9C9.93188 10.9 7.85 8.81812 7.85 6.25H4.65C4.65 10.5854 8.16456 14.1 12.5 14.1V10.9ZM7.85 6.25C7.85 3.68188 9.93188 1.6 12.5 1.6V-1.6C8.16456 -1.6 4.65 1.91456 4.65 6.25H7.85ZM12.5 1.525C9.89045 1.525 7.775 3.64045 7.775 6.25H10.975C10.975 5.40777 11.6578 4.725 12.5 4.725V1.525ZM7.775 6.25C7.775 8.85955 9.89045 10.975 12.5 10.975V7.775C11.6578 7.775 10.975 7.09223 10.975 6.25H7.775ZM12.5 10.975C15.1095 10.975 17.225 8.85955 17.225 6.25H14.025C14.025 7.09223 13.3422 7.775 12.5 7.775V10.975ZM17.225 6.25C17.225 3.64045 15.1095 1.525 12.5 1.525V4.725C13.3422 4.725 14.025 5.40777 14.025 6.25H17.225ZM12.5 15.6625C14.3875 15.6625 17.3104 16.1451 19.7204 17.1087C20.9242 17.59 21.8993 18.1521 22.5478 18.7512C23.1849 19.3397 23.4 19.8555 23.4 20.3125H26.6C26.6 18.6836 25.7741 17.3751 24.7193 16.4007C23.6759 15.4368 22.3082 14.6971 20.9085 14.1374C18.1114 13.019 14.7844 12.4625 12.5 12.4625V15.6625ZM23.4 20.3125V25H26.6V20.3125H23.4ZM25 23.4H0V26.6H25V23.4ZM1.6 25V20.3125H-1.6V25H1.6ZM1.6 20.3125C1.6 19.8555 1.81512 19.3397 2.45217 18.7512C3.10071 18.1521 4.07579 17.59 5.27958 17.1087C7.68957 16.1451 10.6125 15.6625 12.5 15.6625V12.4625C10.2156 12.4625 6.88855 13.019 4.09151 14.1374C2.69179 14.6971 1.3241 15.4368 0.280742 16.4007C-0.774104 17.3751 -1.6 18.6836 -1.6 20.3125H1.6ZM12.4997 15.4313C9.94217 15.4313 7.36268 16.0541 5.41807 16.8041C4.44619 17.179 3.57543 17.6076 2.91676 18.0473C2.59212 18.264 2.26499 18.519 2.00034 18.812C1.78205 19.0536 1.36846 19.578 1.36846 20.3126H4.56846C4.56846 20.7971 4.3077 21.0315 4.375 20.9569C4.39592 20.9338 4.48713 20.8465 4.6935 20.7087C5.09684 20.4394 5.73877 20.1102 6.56962 19.7897C8.23049 19.1491 10.4166 18.6313 12.4997 18.6313V15.4313ZM1.36846 20.3126V22.0313H4.56846V20.3126H1.36846ZM2.96846 23.6313H22.031V20.4313H2.96846V23.6313ZM23.631 22.0313V20.3126H20.431V22.0313H23.631ZM23.631 20.3126C23.631 19.578 23.2174 19.0536 22.9991 18.812C22.7344 18.519 22.4073 18.264 22.0827 18.0473C21.424 17.6076 20.5532 17.179 19.5813 16.8041C17.6367 16.0541 15.0572 15.4313 12.4997 15.4313V18.6313C14.5828 18.6313 16.7689 19.1491 18.4298 19.7897C19.2606 20.1102 19.9026 20.4394 20.3059 20.7087C20.5123 20.8465 20.6035 20.9338 20.6244 20.9569C20.6917 21.0315 20.431 20.7971 20.431 20.3126H23.631Z" fill="black" mask="url(#path-1-inside-1)"/>
</svg>
